Coordinates
version=1
nRows=17
nColumns=24
inDegrees=yes

Units are S.I. units (second, meters, Newtons, ...)
Angles are in degrees.

endheader
time	pelvis_tilt	pelvis_list	pelvis_rotation	pelvis_tx	pelvis_ty	pelvis_tz	hip_flexion_r	hip_adduction_r	hip_rotation_r	knee_angle_r	ankle_angle_r	subtalar_angle_r	mtp_angle_r	hip_flexion_l	hip_adduction_l	hip_rotation_l	knee_angle_l	ankle_angle_l	subtalar_angle_l	mtp_angle_l	lumbar_extension	lumbar_bending	lumbar_rotation
      1.18000000	      6.91750746	     -7.99047793	    -17.17705309	     -0.68834569	      0.97637774	     -0.00411907	    -23.83143360	      1.59707175	     -8.39082072	    -12.99484759	     11.20854015	     21.28053881	      3.62093502	     17.72942706	    -10.32972624	    -34.07205205	     -9.84848614	     -4.51571959	     -4.64948492	     10.41387720	    -21.54673896	     15.30426622	     56.11535292
      1.18500000	      6.92698763	     -7.98832929	    -17.31816930	     -0.68151025	      0.97542929	     -0.00379810	    -24.12250807	      1.39964202	     -8.23929765	    -13.24060426	     11.22627317	     21.15964337	      3.70193701	     17.68791991	    -10.34198340	    -33.56625398	    -10.40061720	     -4.84126039	     -5.24718415	     10.39990786	    -21.51934242	     15.15070290	     56.25139443
      1.19000000	      6.93460772	     -7.96360023	    -17.42603959	     -0.67465955	      0.97454818	     -0.00353649	    -24.38847107	      1.19300275	     -8.10735582	    -13.51159995	     11.20996389	     21.01319661	      3.83353610	     17.66157467	    -10.32440116	    -33.01547857	    -10.96674896	     -5.21511048	     -5.89064588	     10.42760532	    -21.47630916	     14.98246598	     56.35856665
      1.19500000	      6.93211158	     -7.90960112	    -17.52887096	     -0.66778627	      0.97376611	     -0.00332545	    -24.61248048	      0.95937457	     -7.96310454	    -13.81669463	     11.13252148	     20.82888595	      4.01947217	     17.64940949	    -10.27872306	    -32.48139504	    -11.53157479	     -5.66184730	     -6.56866137	     10.49010331	    -21.41187397	     14.79209774	     56.45295143
      1.20000000	      6.93584566	     -7.83101077	    -17.60308867	     -0.66088056	      0.97308351	     -0.00318218	    -24.80724268	      0.70562631	     -7.87355420	    -14.14811506	     10.63793952	     20.59875882	      6.63835484	     17.63804789	    -10.20291941	    -31.94727254	    -12.08403338	     -6.33809801	     -7.33189566	     12.12785363	    -21.33719166	     14.58081903	     56.49388027
      1.20500000	      6.95197887	     -7.74335823	    -17.69543759	     -0.65398570	      0.97256677	     -0.00301703	    -24.98788947	      0.43476726	     -7.68730239	    -14.52871767	     10.46919671	     20.33949097	      6.74322647	     17.61692393	    -10.13183090	    -31.48313145	    -12.68394354	     -6.79691336	     -8.00409259	     12.01875409	    -21.28493546	     14.35107317	     56.59020756
      1.21000000	      6.97202528	     -7.63315051	    -17.72275162	     -0.64705016	      0.97213122	     -0.00298483	    -25.13635983	      0.15768736	     -7.60957636	    -14.94411619	      9.89440741	     20.07326305	      9.25289062	     17.61372462	    -10.01940524	    -30.94633893	    -13.29179108	     -7.31529034	     -8.71406886	     12.35548925	    -21.21294399	     14.11661913	     56.59135117
      1.21500000	      7.00079594	     -7.50900573	    -17.78885618	     -0.64011307	      0.97187056	     -0.00289478	    -25.24970291	     -0.14772247	     -7.41572080	    -15.43910673	      9.63564826	     19.76275854	      9.34594105	     17.59050863	     -9.91483345	    -30.53433475	    -13.92267187	     -7.75531320	     -9.34541127	     12.28242313	    -21.15826693	     13.85110779	     56.63856506
      1.22000000	      7.03972166	     -7.36433768	    -17.78996024	     -0.63309516	      0.97169957	     -0.00291713	    -25.34791712	     -0.45886922	     -7.34434757	    -15.94281828	      8.92148178	     19.43564768	     12.02371782	     17.57746487	     -9.77019711	    -30.07450513	    -14.57405361	     -8.20958834	    -10.01212696	     12.75732915	    -21.08757655	     13.58268914	     56.62228919
      1.22500000	      7.07997129	     -7.21355512	    -17.78716441	     -0.62607654	      0.97166663	     -0.00295069	    -25.39705648	     -0.77445228	     -7.21887140	    -16.55548593	      8.53587446	     19.12062662	     12.20699058	     17.55815161	     -9.62305068	    -29.66461351	    -15.23746884	     -8.57333237	    -10.58523685	     12.68253299	    -21.02311107	     13.30982937	     56.62947635
      1.23000000	      7.13975273	     -7.05075734	    -17.75642130	     -0.61897667	      0.97175110	     -0.00301389	    -25.44170236	     -1.10321914	     -7.14279677	    -17.15931985	      7.59496663	     18.76877330	     15.30383750	     17.51120811	     -9.45171224	    -29.28535871	    -15.89689155	     -8.89237592	    -11.09978774	     12.89827862	    -20.95895610	     13.02098564	     56.56908685
      1.23500000	      7.20483185	     -6.89062588	    -17.71743375	     -0.61185972	      0.97197467	     -0.00308560	    -25.44097992	     -1.42860034	     -7.02308968	    -17.88408667	      7.01739247	     18.47719211	     15.41145050	     17.44144902	     -9.27816040	    -28.96534488	    -16.54187608	     -9.16615638	    -11.54142500	     12.84116009	    -20.90245738	     12.73420733	     56.50649234
      1.24000000	      7.25882934	     -6.71797120	    -17.62010370	     -0.60466927	      0.97223808	     -0.00324855	    -25.38928418	     -1.75044326	     -7.03553625	    -18.63624297	      5.91630881	     18.12349971	     18.86017381	     17.38828188	     -9.07416312	    -28.61939424	    -17.18881080	     -9.36421847	    -11.93531239	     12.96841699	    -20.81909787	     12.46410189	     56.43319682
      1.24500000	      7.31812571	     -6.55562740	    -17.51306401	     -0.59745817	      0.97261196	     -0.00340453	    -25.29763040	     -2.05968711	     -6.99706668	    -19.47917404	      4.95404946	     17.76953015	     20.76724018	     17.30444291	     -8.87196857	    -28.33885795	    -17.80786376	     -9.49880997	    -12.28459116	     12.95814905	    -20.73825914	     12.19992149	     56.30776363
      1.25000000	      7.41399060	     -6.41219223	    -17.37200150	     -0.59020303	      0.97312586	     -0.00359019	    -25.21274487	     -2.35457436	     -6.98171376	    -20.37245194	      3.86034341	     17.42898246	     22.69894193	     17.14837573	     -8.65919200	    -28.08363584	    -18.37720150	     -9.55646325	    -12.54368490	     12.98700006	    -20.70165151	     11.95448216	     56.19966546
      1.25500000	      7.50721954	     -6.25989610	    -17.22387915	     -0.58289864	      0.97371336	     -0.00376408	    -25.06891116	     -2.66008659	     -6.97136025	    -21.37334423	      2.96333234	     17.22978775	     22.68525253	     16.96966133	     -8.43522010	    -27.91795446	    -18.92376655	     -9.49865290	    -12.66724662	     12.99494393	    -20.64928653	     11.70158020	     56.06012832
      1.26000000	      7.57120758	     -6.14466662	    -16.99067229	     -0.57561834	      0.97434833	     -0.00408501	    -24.86066926	     -2.89356468	     -7.03246726	    -22.38865679	      1.42737612	     16.79173031	     26.49898345	     16.80117450	     -8.20340235	    -27.61887101	    -19.38212927	     -9.55336673	    -12.95443421	     13.01719610	    -20.57267027	     11.52836811	     55.85173635
